<?xml version="1.0" encoding="utf-8"?>
<!-- Generator: Adobe Illustrator 25.4.1, SVG Export Plug-In . SVG Version: 6.00 Build 0)  -->
<svg version="1.1" id="Layer_1" xmlns="http://www.w3.org/2000/svg" xmlns:xlink="http://www.w3.org/1999/xlink" x="0px" y="0px"
	 viewBox="0 0 70 45.7" style="enable-background:new 0 0 70 45.7;" xml:space="preserve">
<style type="text/css">
	.st0{fill:#FDBA0B;}
	.st1{fill:#003A7A;}
</style>
<path class="st0" d="M35,9.4l13.5,13.5L35,36.3L21.5,22.9L35,9.4 M35,0L12.1,22.9L35,45.7l22.9-22.9L35,0L35,0z"/>
<polygon class="st1" points="52.9,5.7 46.7,11.8 50.3,15.3 52.9,12.7 63,22.9 52.9,33 42.7,22.9 45.6,20 42,16.5 35.7,22.9 52.9,40 
	70,22.9 "/>
<polygon class="st1" points="19.7,30.5 17.2,33 7.1,22.9 17.2,12.7 27.3,22.9 24.4,25.8 27.9,29.3 34.4,22.9 17.2,5.7 0,22.9 
	17.2,40 23.2,34 "/>
</svg>
