<svg width="43" height="37" viewBox="0 0 43 37" fill="none" xmlns="http://www.w3.org/2000/svg">
<path d="M1.41421 22.6274C0.633165 21.8464 0.633165 20.58 1.41421 19.799L20.5061 0.7071C20.8966 0.316576 21.5298 0.316575 21.9203 0.7071L24.7487 3.53553L4.94975 23.3345C4.1687 24.1156 2.90237 24.1156 2.12132 23.3345L1.41421 22.6274Z" fill="white"/>
<path d="M40.6274 23.3345C39.8464 24.1156 38.58 24.1156 37.799 23.3345L18 3.53555L20.8284 0.70712C21.2189 0.316596 21.8521 0.316596 22.2426 0.70712L41.3345 19.799C42.1156 20.58 42.1156 21.8464 41.3345 22.6274L40.6274 23.3345Z" fill="white"/>
<path d="M1.41421 34.6274C0.633165 33.8464 0.633165 32.58 1.41421 31.799L20.5061 12.7071C20.8966 12.3166 21.5298 12.3166 21.9203 12.7071L24.7487 15.5355L4.94975 35.3345C4.1687 36.1156 2.90237 36.1156 2.12132 35.3345L1.41421 34.6274Z" fill="white"/>
<path d="M40.6274 35.3345C39.8464 36.1156 38.58 36.1156 37.799 35.3345L18 15.5355L20.8284 12.7071C21.2189 12.3166 21.8521 12.3166 22.2426 12.7071L41.3345 31.799C42.1156 32.58 42.1156 33.8464 41.3345 34.6274L40.6274 35.3345Z" fill="white"/>
</svg>